<?xml version="1.0" encoding="utf-8"?>
<!-- Generator: Adobe Illustrator 19.1.0, SVG Export Plug-In . SVG Version: 6.00 Build 0)  -->
<svg version="1.1" id="Calque_1" xmlns="http://www.w3.org/2000/svg" xmlns:xlink="http://www.w3.org/1999/xlink" x="0px" y="0px"
	 width="121px" height="121px" viewBox="0 0 121 121" style="enable-background:new 0 0 121 121;" xml:space="preserve">
<style type="text/css">
	.st0{fill:#13110C;}
	.st1{fill:#FFFFFF;}
</style>
<rect class="st0" width="121" height="121"/>
<g>
	<g id="UX">
		<path class="st1" d="M56.6,52.3V32h1.6v20.3c0,3.1-0.8,6.1-2.5,8.7c-1.6,2.7-3.9,4.8-6.7,6.4c-2.8,1.6-5.9,2.3-9.2,2.3
			c-3.3,0-6.4-0.8-9.2-2.3c-2.8-1.6-5-3.7-6.7-6.4c-1.6-2.7-2.5-5.6-2.5-8.7V32H23v20.3c0,2.1,0.4,4.2,1.3,6.2s2.1,3.7,3.6,5.1
			c1.5,1.4,3.3,2.6,5.4,3.4c2.1,0.8,4.2,1.3,6.5,1.3c2.3,0,4.4-0.4,6.5-1.3c2.1-0.8,3.9-2,5.4-3.4c1.5-1.4,2.7-3.1,3.6-5.1
			C56.1,56.5,56.6,54.4,56.6,52.3z M53.4,52.3V32H55v20.3c0,1.9-0.4,3.8-1.2,5.6c-0.8,1.8-1.9,3.3-3.2,4.6c-1.4,1.3-3,2.3-4.8,3.1
			c-1.9,0.8-3.8,1.1-5.9,1.1c-2.1,0-4-0.4-5.9-1.1c-1.9-0.8-3.5-1.8-4.8-3.1c-1.4-1.3-2.4-2.8-3.2-4.6c-0.8-1.8-1.2-3.6-1.2-5.6V32
			h1.6v20.3c0,2.3,0.6,4.4,1.8,6.4c1.2,2,2.9,3.5,5,4.6c2.1,1.1,4.4,1.7,6.8,1.7c2.5,0,4.7-0.6,6.8-1.7c2.1-1.1,3.7-2.7,5-4.6
			C52.8,56.7,53.4,54.6,53.4,52.3z M50.3,52.3V32h1.6v20.3c0,1.5-0.3,3-1,4.3c-0.6,1.4-1.5,2.6-2.6,3.6c-1.1,1-2.4,1.8-3.8,2.4
			c-1.5,0.6-3,0.9-4.7,0.9c-1.6,0-3.2-0.3-4.7-0.9c-1.5-0.6-2.8-1.4-3.8-2.4c-1.1-1-1.9-2.2-2.6-3.6c-0.6-1.4-1-2.8-1-4.3V32h1.6
			v20.3c0,1.7,0.5,3.3,1.4,4.8c0.9,1.5,2.2,2.6,3.8,3.5c1.6,0.9,3.4,1.3,5.2,1.3c1.9,0,3.6-0.4,5.2-1.3c1.6-0.9,2.9-2,3.8-3.5
			C49.8,55.6,50.3,54,50.3,52.3z M47.1,52.3V32h1.6v20.3c0,2.2-0.9,4.1-2.6,5.7c-1.7,1.6-3.8,2.4-6.3,2.4c-2.4,0-4.5-0.8-6.3-2.4
			c-1.7-1.6-2.6-3.5-2.6-5.7V32h1.6v20.3c0,1.8,0.7,3.3,2.2,4.6c1.4,1.3,3.2,1.9,5.2,1.9c2,0,3.8-0.6,5.2-1.9
			C46.4,55.6,47.1,54,47.1,52.3z"/>
		<path class="st1" d="M73.1,48.6l-0.9,1.5L60.8,32h1.9L73.1,48.6z M84.7,32h1.9L63.7,68.2h-1.9L84.7,32z M75,45.7L74,47.2L64.5,32
			h1.8L75,45.7z M88.4,32h1.9L67.5,68.2h-1.9L88.4,32z M76.8,42.7l-0.9,1.5L68.2,32h1.9L76.8,42.7z M92.1,32h1.8L71.2,68.2h-1.9
			L92.1,32z M78.7,39.8l-0.9,1.5L71.9,32h1.9L78.7,39.8z M95.8,32h1.9L74.9,68.2H73L95.8,32z M80.9,60.4l0.9-1.5l5.8,9.2h-1.9
			L80.9,60.4z M82.7,57.5l0.9-1.5l7.7,12.2h-1.9L82.7,57.5z M84.6,54.5l0.9-1.5L95,68.2h-1.9L84.6,54.5z M86.4,51.6l0.9-1.5
			l11.4,18.1h-1.9L86.4,51.6z"/>
	</g>
	<g id="Rennes">
		<path class="st1" d="M28.1,85.6h-1.6v3.3h-4.2V76.2h6.1c3.4,0,5.4,1.6,5.4,4.5c0,1.8-0.7,3.2-2,4l2.5,4.1h-4.7L28.1,85.6z
			 M28.5,82.4c0.9,0,1.4-0.6,1.4-1.5c0-0.9-0.5-1.5-1.4-1.5h-1.9v3H28.5z"/>
		<path class="st1" d="M39.6,79.4v1.6h5.9v3.2h-5.9v1.6h6.7v3.2H35.4V76.2h10.7v3.2H39.6z"/>
		<path class="st1" d="M56.7,88.9l-5-6.5v6.5h-3.8V76.2h3.5l5,6.5v-6.5h3.8v12.7H56.7z"/>
		<path class="st1" d="M70.8,88.9l-5-6.5v6.5H62V76.2h3.5l5,6.5v-6.5h3.8v12.7H70.8z"/>
		<path class="st1" d="M80.3,79.4v1.6h5.9v3.2h-5.9v1.6H87v3.2H76.1V76.2h10.7v3.2H80.3z"/>
		<path class="st1" d="M99.5,77.5L98,80.7c-1.3-0.7-3.2-1.5-4.3-1.5c-0.5,0-0.8,0.1-0.8,0.5c0,1.6,6.6,0.6,6.6,5.2
			c0,2.8-2.5,4.1-5.3,4.1c-2.2,0-4.7-0.7-6.3-2l1.6-3.1c1.3,1.1,3.5,2,4.8,2c0.6,0,1-0.2,1-0.6c0-1.6-6.6-0.6-6.6-5
			c0-2.5,2.1-4.1,5.4-4.1C96,76,98.1,76.6,99.5,77.5z"/>
	</g>
</g>
</svg>
